<svg width="22" height="22" viewBox="0 0 22 22" xmlns="http://www.w3.org/2000/svg">
<g fill="#0B63CE">
<rect width="23" height="22" fill="white"/>
<path d="M1.62 0C0.72 0 0 0.72 0 1.62C0 3.49 0 18.51 0 20.38C0 21.28 0.72 22 1.62 22C3.49 22 18.5 22 20.38 22C21.28 22 22 21.28 22 20.38C22 18.51 22 3.49 22 1.62C22.03 0.72 21.31 0 20.42 0C16.66 0 3.5 0 1.62 0ZM6.09 14.7C5.85 14.7 3.89 14.7 3.65 14.7C3.41 14.7 3.24 14.53 3.24 14.29C3.24 14.04 3.24 12.09 3.24 11.84C3.24 11.6 3.41 11.43 3.65 11.43C3.89 11.43 5.85 11.43 6.09 11.43C6.33 11.43 6.51 11.6 6.51 11.84C6.51 12.01 6.51 12.82 6.51 14.29L6.51 14.29C6.39 14.56 6.25 14.7 6.09 14.7ZM6.09 10.6C5.85 10.6 3.89 10.6 3.65 10.6C3.41 10.6 3.24 10.43 3.24 10.19C3.24 9.95 3.24 7.99 3.24 7.75C3.24 7.51 3.41 7.33 3.65 7.33C3.89 7.33 5.85 7.33 6.09 7.33C6.33 7.33 6.51 7.51 6.51 7.75C6.51 7.91 6.51 8.72 6.51 10.19L6.51 10.19C6.39 10.47 6.25 10.6 6.09 10.6ZM6.09 6.54C5.85 6.54 3.89 6.54 3.65 6.54C3.41 6.54 3.24 6.37 3.24 6.13C3.24 5.88 3.24 3.93 3.24 3.68C3.24 3.44 3.41 3.27 3.65 3.27C3.89 3.27 5.85 3.27 6.09 3.27C6.33 3.27 6.51 3.44 6.51 3.68C6.51 3.85 6.51 4.66 6.51 6.13L6.51 6.13C6.39 6.4 6.25 6.54 6.09 6.54ZM10.19 18.76C9.95 18.76 7.99 18.76 7.75 18.76C7.51 18.76 7.33 18.59 7.33 18.35C7.33 18.11 7.33 16.15 7.33 15.91C7.33 15.67 7.51 15.49 7.75 15.49C7.99 15.49 9.95 15.49 10.19 15.49C10.43 15.49 10.6 15.67 10.6 15.91C10.6 16.07 10.6 16.88 10.6 18.35L10.6 18.35C10.49 18.63 10.35 18.76 10.19 18.76ZM10.19 10.6C9.95 10.6 7.99 10.6 7.75 10.6C7.51 10.6 7.33 10.43 7.33 10.19C7.33 9.95 7.33 7.99 7.33 7.75C7.33 7.51 7.51 7.33 7.75 7.33C7.99 7.33 9.95 7.33 10.19 7.33C10.43 7.33 10.6 7.51 10.6 7.75C10.6 7.91 10.6 8.72 10.6 10.19L10.6 10.19C10.49 10.47 10.35 10.6 10.19 10.6ZM10.19 6.54C9.95 6.54 7.99 6.54 7.75 6.54C7.51 6.54 7.33 6.37 7.33 6.13C7.33 5.88 7.33 3.93 7.33 3.68C7.33 3.44 7.51 3.27 7.75 3.27C7.99 3.27 9.95 3.27 10.19 3.27C10.43 3.27 10.6 3.44 10.6 3.68C10.6 3.85 10.6 4.66 10.6 6.13L10.6 6.13C10.49 6.4 10.35 6.54 10.19 6.54ZM14.29 18.76C14.04 18.76 12.09 18.76 11.84 18.76C11.6 18.76 11.43 18.59 11.43 18.35C11.43 18.11 11.43 16.15 11.43 15.91C11.43 15.67 11.6 15.49 11.84 15.49C12.09 15.49 14.04 15.49 14.29 15.49C14.53 15.49 14.7 15.67 14.7 15.91C14.7 16.07 14.7 16.88 14.7 18.35L14.7 18.35C14.59 18.63 14.45 18.76 14.29 18.76ZM14.29 14.7C14.04 14.7 12.09 14.7 11.84 14.7C11.6 14.7 11.43 14.53 11.43 14.29C11.43 14.04 11.43 12.09 11.43 11.84C11.43 11.6 11.6 11.43 11.84 11.43C12.09 11.43 14.04 11.43 14.29 11.43C14.53 11.43 14.7 11.6 14.7 11.84C14.7 12.01 14.7 12.82 14.7 14.29L14.7 14.29C14.59 14.56 14.45 14.7 14.29 14.7ZM14.29 6.54C14.04 6.54 12.09 6.54 11.84 6.54C11.6 6.54 11.43 6.37 11.43 6.13C11.43 5.88 11.43 3.93 11.43 3.68C11.43 3.44 11.6 3.27 11.84 3.27C12.09 3.27 14.04 3.27 14.29 3.27C14.53 3.27 14.7 3.44 14.7 3.68C14.7 3.85 14.7 4.66 14.7 6.13L14.7 6.13C14.59 6.4 14.45 6.54 14.29 6.54ZM18.35 18.76C18.11 18.76 16.15 18.76 15.91 18.76C15.66 18.76 15.49 18.59 15.49 18.35C15.49 18.11 15.49 16.15 15.49 15.91C15.49 15.67 15.66 15.49 15.91 15.49C16.15 15.49 18.11 15.49 18.35 15.49C18.59 15.49 18.76 15.67 18.76 15.91C18.76 16.07 18.76 16.88 18.76 18.35C18.65 18.63 18.51 18.76 18.35 18.76ZM18.35 14.7C18.11 14.7 16.15 14.7 15.91 14.7C15.66 14.7 15.49 14.53 15.49 14.29C15.49 14.04 15.49 12.09 15.49 11.84C15.49 11.6 15.66 11.43 15.91 11.43C16.15 11.43 18.11 11.43 18.35 11.43C18.59 11.43 18.76 11.6 18.76 11.84C18.76 12.01 18.76 12.82 18.76 14.29C18.65 14.56 18.51 14.7 18.35 14.7ZM18.35 10.6C18.11 10.6 16.15 10.6 15.91 10.6C15.66 10.6 15.49 10.43 15.49 10.19C15.49 9.95 15.49 7.99 15.49 7.75C15.49 7.51 15.66 7.33 15.91 7.33C16.15 7.33 18.11 7.33 18.35 7.33C18.59 7.33 18.76 7.51 18.76 7.75C18.76 7.91 18.76 8.72 18.76 10.19C18.65 10.47 18.51 10.6 18.35 10.6Z" id="bh0Nu2pML"></path>
</g>
</svg>